<svg width="21" height="20" viewBox="0 0 21 20" fill="none" xmlns="http://www.w3.org/2000/svg">
<path d="M1.25006 13.701C0.532622 14.1152 0.286809 15.0326 0.701023 15.75C1.11524 16.4674 2.03262 16.7133 2.75006 16.299L1.25006 13.701ZM20.7695 5.38823C20.9839 4.58803 20.509 3.76552 19.7088 3.55111L6.6688 0.0570543C5.8686 -0.157358 5.04609 0.317515 4.83168 1.11771C4.61727 1.91791 5.09214 2.74042 5.89234 2.95483L17.4835 6.06066L14.3776 17.6518C14.1632 18.452 14.6381 19.2745 15.4383 19.4889C16.2385 19.7033 17.061 19.2284 17.2754 18.4282L20.7695 5.38823ZM2.75006 16.299L20.0706 6.29904L18.5706 3.70096L1.25006 13.701L2.75006 16.299Z" fill="black"/>
</svg>
